<?xml version="1.0" standalone="no"?>
<!DOCTYPE svg PUBLIC "-//W3C//DTD SVG 20010904//EN"
 "http://www.w3.org/TR/2001/REC-SVG-20010904/DTD/svg10.dtd">
<svg version="1.0" xmlns="http://www.w3.org/2000/svg"
 width="400.000000pt" height="400.000000pt" viewBox="0 0 400.000000 400.000000"
 preserveAspectRatio="xMidYMid meet">

<g transform="translate(0.000000,400.000000) scale(0.100000,-0.100000)"
fill="#000000" stroke="none">
<path d="M2981 2932 c-52 -7 -112 -22 -133 -33 -20 -10 -42 -19 -48 -19 -17 0
-98 -39 -105 -50 -3 -5 -14 -10 -23 -10 -10 0 -41 -24 -69 -52 -38 -38 -55
-65 -61 -96 -10 -41 -9 -43 22 -66 32 -24 124 -37 111 -16 -3 6 3 10 17 10 13
0 42 19 73 49 32 32 68 55 100 66 27 9 54 20 60 25 32 25 262 43 345 26 59
-12 192 -59 239 -83 27 -14 71 -26 113 -30 62 -5 68 -4 68 13 0 13 3 15 8 6 6
-9 14 -4 30 18 24 32 28 45 12 35 -7 -4 -9 2 -4 19 5 22 3 26 -15 26 -12 0
-20 6 -19 13 3 13 -105 71 -167 88 -22 6 -62 20 -88 31 -52 21 -249 49 -325
46 -26 -1 -89 -8 -141 -16z"/>
<path d="M990 2740 c-25 -5 -76 -14 -115 -20 -38 -7 -105 -25 -147 -41 -42
-16 -84 -29 -92 -29 -9 0 -16 -4 -16 -10 0 -5 -5 -10 -11 -10 -17 0 -113 -49
-124 -64 -6 -7 -20 -16 -33 -20 -12 -4 -30 -18 -38 -32 -9 -13 -20 -24 -25
-24 -31 0 -169 -170 -210 -258 -51 -108 -50 -194 3 -220 33 -15 107 -22 133
-12 11 5 14 9 7 9 -7 1 -10 6 -7 12 4 6 13 8 20 5 15 -5 24 19 31 89 3 28 17
69 30 92 40 69 211 233 243 233 6 0 11 4 11 9 0 5 8 11 18 14 9 3 52 21 94 40
104 47 232 70 387 71 128 0 229 -18 325 -58 61 -26 173 -19 162 10 -3 9 2 14
13 14 23 0 36 42 22 69 -12 22 -55 51 -76 51 -9 0 -26 7 -38 15 -13 8 -75 26
-138 41 -123 28 -341 40 -429 24z"/>
<path d="M3070 2492 c-66 -25 -106 -59 -149 -127 -83 -133 -114 -251 -106
-404 7 -133 16 -192 36 -229 11 -18 19 -37 19 -42 0 -5 18 -35 39 -67 33 -50
66 -85 127 -132 21 -17 74 -41 74 -35 0 4 8 0 18 -9 42 -38 210 -56 307 -33
197 47 327 181 382 391 18 70 23 135 11 152 -5 6 -5 14 0 17 11 7 -21 136 -48
191 -11 23 -20 46 -20 51 0 6 -18 38 -40 72 -40 62 -122 135 -170 154 -60 23
-181 46 -253 47 -44 1 -98 6 -120 11 -52 12 -53 12 -107 -8z"/>
<path d="M1145 2395 c-84 -15 -279 -80 -307 -104 -104 -87 -150 -165 -168
-283 -12 -85 -11 -186 3 -205 5 -7 7 -19 4 -27 -3 -8 0 -40 8 -72 7 -31 11
-63 8 -70 -2 -6 0 -15 6 -19 6 -3 11 -15 11 -26 0 -10 5 -19 10 -19 6 0 10
-11 10 -25 0 -26 16 -62 36 -80 7 -5 17 -27 24 -47 6 -21 17 -38 23 -38 7 0
18 -13 25 -30 9 -19 21 -30 35 -30 11 0 18 -3 14 -6 -7 -8 58 -68 92 -85 14
-7 33 -18 41 -25 21 -16 105 -41 165 -49 138 -19 267 6 416 82 164 83 258 191
303 346 17 58 20 164 4 173 -4 3 -6 9 -4 13 4 6 -3 46 -18 106 -12 46 -75 175
-86 175 -5 0 -10 7 -10 16 0 22 -33 63 -121 152 -83 85 -87 88 -177 131 -100
48 -232 66 -347 46z"/>
<path d="M2353 1443 c-13 -2 -28 -12 -35 -22 -7 -9 -21 -20 -30 -24 -10 -3
-18 -13 -18 -22 0 -8 -4 -15 -8 -15 -5 0 -18 -17 -30 -37 -11 -21 -42 -65 -69
-98 -51 -64 -103 -161 -103 -193 0 -14 16 -27 58 -45 83 -38 115 -27 167 60
36 58 53 81 122 172 l19 23 89 -92 c50 -50 104 -98 122 -106 36 -15 113 -19
113 -5 0 5 9 11 21 14 12 3 18 10 14 16 -3 6 1 11 9 11 16 0 20 16 16 55 -1
10 -23 41 -48 68 -26 26 -49 52 -50 58 -2 5 -17 16 -33 24 -16 9 -29 22 -29
30 0 8 -4 15 -8 15 -5 0 -25 16 -45 35 -20 20 -50 38 -67 41 -16 4 -28 10 -25
14 3 4 -1 10 -8 13 -22 8 -120 15 -144 10z"/>
</g>
</svg>
